<?xml version="1.0" encoding="UTF-8"?>
<!DOCTYPE svg PUBLIC "-//W3C//DTD SVG 1.1//EN" "http://www.w3.org/Graphics/SVG/1.1/DTD/svg11.dtd">
<!-- Creator: CorelDRAW X7 -->
<svg xmlns="http://www.w3.org/2000/svg" xml:space="preserve" width="129.087mm" height="31.9612mm" version="1.1" style="shape-rendering:geometricPrecision; text-rendering:geometricPrecision; image-rendering:optimizeQuality; fill-rule:evenodd; clip-rule:evenodd"
viewBox="0 0 8355 2069"
 xmlns:xlink="http://www.w3.org/1999/xlink">
 <defs>
  <style type="text/css">
   <![CDATA[
    .fil2 {fill:none}
    .fil0 {fill:#01BD44}
    .fil3 {fill:#01BD44;fill-rule:nonzero}
    .fil4 {fill:#01BD44;fill-rule:nonzero}
    .fil1 {fill:#2193CF;fill-rule:nonzero}
   ]]>
  </style>
 </defs>
 <g id="Layer_x0020_1">
  <metadata id="CorelCorpID_0Corel-Layer"/>
  <g id="_2172338808656">
   <path class="fil0" d="M714 111l-550 371c-164,111 -164,128 -164,327l0 749c1,89 50,94 82,71l115 -93 63 -50c10,-8 14,-22 14,-36l0 -101 -1 -555c1,-37 3,-57 46,-88l148 -99c47,-34 88,-27 120,-5l250 201c129,93 132,106 277,-11l210 -172c47,-34 72,-29 118,1l111 77c50,31 45,75 45,95l1 589 0 40 197 -163 56 -46c7,-6 26,-19 27,-60l0 -155 0 -186c0,-208 4,-226 -166,-346l-516 -366c-200,-141 -276,-129 -483,11z"/>
   <path class="fil0" d="M942 1296l-360 -292c-29,-24 -71,-13 -71,27l0 826c2,53 49,59 86,29l178 -144c16,-13 17,-25 17,-47l0 -208c0,-17 15,-25 27,-16l129 105c17,13 31,8 44,-2l78 -63c15,-12 24,-2 24,14l1 255c1,29 22,28 41,11l186 -152c0,0 24,-22 24,10l0 287c0,13 15,19 27,10l200 -159c17,-11 26,-30 26,-55l0 -350 -231 180c-15,12 -26,8 -26,-15l0 -497c0,-35 -28,-18 -38,-9l-313 252c-24,19 -34,13 -49,3z"/>
   <path class="fil0" d="M3791 1048c0,42 -5,81 -16,120 -11,38 -26,74 -46,108 -19,33 -43,64 -71,91 -28,28 -58,52 -92,72 -34,19 -70,34 -109,45 -38,11 -79,16 -121,16 -42,0 -82,-5 -121,-16 -38,-11 -74,-26 -108,-45 -34,-20 -64,-44 -92,-72 -28,-27 -52,-58 -73,-91 -19,-34 -34,-70 -45,-108 -11,-39 -16,-78 -16,-120 0,-41 5,-81 16,-120 11,-39 26,-74 45,-107 21,-34 45,-64 73,-92 28,-27 58,-51 92,-71 34,-19 70,-34 108,-45 39,-11 79,-16 121,-16 42,0 83,5 121,16 39,11 75,26 109,45 34,20 64,44 92,71 28,28 52,58 71,92 20,33 35,68 46,107 11,39 16,79 16,120zm-174 0c0,-38 -8,-74 -22,-108 -15,-34 -35,-63 -61,-88 -25,-26 -55,-45 -89,-60 -34,-14 -70,-22 -109,-22 -38,0 -75,8 -109,22 -34,15 -63,34 -89,60 -26,25 -46,54 -60,88 -15,34 -23,70 -23,108 0,38 8,74 23,108 14,34 34,63 60,88 26,24 55,45 89,59 34,15 71,22 109,22 39,0 75,-7 109,-22 34,-14 64,-35 89,-59 26,-25 46,-54 61,-88 14,-34 22,-70 22,-108z"/>
   <path class="fil0" d="M3989 782l0 350 0 174 0 69 0 106 -176 0 0 -873 353 0c32,0 63,4 93,13 30,7 58,20 84,35 26,14 50,33 71,55 22,21 40,44 55,70 16,27 28,54 36,84 9,29 12,60 12,92 0,31 -3,60 -11,88 -7,29 -18,56 -33,81 -13,26 -31,49 -51,71 -20,21 -44,40 -69,56l98 228 -187 0 -77 -176 -104 1 0 -174 83 0c24,0 47,-4 68,-13 21,-10 39,-22 56,-38 16,-16 28,-35 37,-55 10,-22 14,-45 14,-69 0,-24 -4,-46 -14,-67 -9,-22 -21,-40 -37,-56 -17,-16 -35,-29 -56,-37 -21,-10 -44,-15 -68,-15l-177 0z"/>
   <path class="fil0" d="M2865 1481l-176 0 0 -624c0,-12 -2,-23 -7,-34 -5,-10 -11,-19 -19,-27 -8,-8 -17,-15 -28,-19 -11,-4 -22,-7 -35,-7 -12,0 -23,3 -33,7 -11,4 -21,11 -29,19 -7,8 -14,17 -18,27 -4,11 -7,22 -7,34l0 624 -176 0 0 -624c0,-12 -3,-23 -7,-34 -5,-10 -11,-19 -19,-27 -8,-8 -17,-15 -28,-19 -10,-4 -22,-7 -34,-7 -12,0 -24,3 -34,7 -11,4 -20,11 -29,19 -8,8 -14,17 -18,27 -4,11 -7,22 -7,34l0 624 -176 0 0 -624c0,-36 6,-69 20,-101 14,-32 32,-60 56,-84 25,-24 53,-42 84,-56 33,-14 68,-21 104,-21 32,0 64,6 95,18 30,11 57,28 81,50 24,-22 51,-39 82,-50 29,-12 61,-18 93,-18 37,0 72,7 103,21 33,14 61,32 85,56 24,24 42,52 56,84 14,32 21,65 21,101l0 624z"/>
   <path class="fil1" d="M310 2069l-1 0 -1 -2 -2 0 0 2 -1 0 2 -6 1 0 2 6zm-2 -3l-1 -2 0 2 1 0z"/>
   <polygon class="fil2" points="359,2048 1214,2048 1214,980 359,980 "/>
   <polygon class="fil3" points="4719,1481 4544,1481 4544,605 4719,605 4719,956 5069,956 5069,605 5244,605 5244,1481 5069,1481 5069,1131 4719,1131 "/>
   <path class="fil4" d="M5978 1131c0,48 -10,94 -28,136 -18,43 -43,80 -75,111 -32,32 -69,57 -112,75 -42,18 -87,28 -136,28 -48,0 -94,-10 -136,-28 -43,-18 -80,-43 -111,-75 -32,-31 -57,-68 -75,-111 -19,-42 -28,-88 -28,-136l0 -526 175 0 0 526c0,24 4,46 14,67 9,22 21,40 37,56 16,16 35,28 56,38 21,9 44,13 68,13 24,0 47,-4 68,-13 22,-10 40,-22 56,-38 16,-16 28,-34 37,-56 10,-21 14,-43 14,-67l0 -526 176 0 0 526z"/>
   <path class="fil4" d="M6887 1479l-175 0 0 -625c0,-12 -2,-23 -7,-34 -5,-11 -11,-20 -19,-28 -8,-8 -17,-14 -28,-18 -11,-5 -22,-7 -34,-7 -12,0 -24,2 -34,7 -11,4 -20,10 -28,18 -8,8 -14,17 -19,28 -4,11 -6,22 -6,34l0 625 -176 0 0 -625c0,-12 -2,-23 -6,-34 -5,-11 -11,-20 -19,-28 -8,-8 -17,-14 -28,-18 -10,-5 -22,-7 -34,-7 -12,0 -24,2 -34,7 -11,4 -20,10 -28,18 -8,8 -14,17 -19,28 -4,11 -6,22 -6,34l0 625 -176 0 0 -625c0,-36 7,-70 21,-102 14,-32 32,-60 56,-84 24,-23 52,-42 84,-56 32,-13 66,-20 102,-20 32,0 64,5 94,17 30,12 57,28 81,50 24,-22 51,-38 81,-50 30,-12 61,-17 94,-17 36,0 70,7 102,20 32,14 60,33 84,56 24,24 42,52 56,84 14,32 21,66 21,102l0 625z"/>
   <path class="fil4" d="M7447 1130l0 -176c0,-24 -4,-46 -14,-68 -9,-21 -21,-40 -37,-56 -16,-15 -34,-28 -56,-37 -21,-9 -44,-14 -68,-14 -24,0 -47,5 -68,14 -21,9 -40,22 -56,37 -16,16 -28,35 -37,56 -10,22 -14,44 -14,68l0 176 350 0zm176 349l-176 0 0 -175 -350 0 0 175 -175 0 0 -525c0,-48 9,-94 28,-136 18,-43 43,-80 75,-112 31,-31 68,-56 111,-75 42,-18 88,-27 136,-27 49,0 94,9 136,27 43,19 80,44 112,75 32,32 57,69 75,112 18,42 28,88 28,136l0 525z"/>
   <polygon class="fil4" points="8355,1480 8167,1480 7829,903 7829,1480 7654,1480 7654,604 7842,604 8179,1181 8179,604 8355,604 "/>
  </g>
 </g>
</svg>
